HIERARCHY
ROOT hip
{
	OFFSET 0.000000 0.000000 0.000000 
	CHANNELS 6 Xposition Yposition Zposition Xrotation Zrotation Yrotation
	JOINT abdomen
	{
		OFFSET 0.000000 3.402643 0.000000 
		CHANNELS 3 Xrotation Zrotation Yrotation
		JOINT chest
		{
			OFFSET 0.000000 8.438565 -0.680529 
			CHANNELS 3 Xrotation Zrotation Yrotation
			JOINT neck
			{
				OFFSET 0.000000 10.207942 -0.272212 
				CHANNELS 3 Xrotation Zrotation Yrotation
				JOINT head
				{
					OFFSET 0.000000 3.130431 0.000000 
					CHANNELS 3 Xrotation Zrotation Yrotation
					End Site
					{
						OFFSET 0.000000 3.130435 0.000000 
					}
				}
			}
			JOINT lCollar
			{
				OFFSET 3.470700 6.669187 -0.816635 
				CHANNELS 3 Yrotation Zrotation Xrotation
				JOINT lShldr
				{
					OFFSET 3.198488 0.000000 0.000000 
					CHANNELS 3 Zrotation Yrotation Xrotation
					JOINT lForeArm
					{
						OFFSET 10.139888 0.000000 0.000000 
						CHANNELS 3 Yrotation Zrotation Xrotation
						JOINT lHand
						{
							OFFSET 8.370511 0.000000 0.000000 
							CHANNELS 3 Zrotation Yrotation Xrotation
							End Site
							{
								OFFSET 4.083176 0.000000 0.000000 
							}
						}
					}
				}
			}
			JOINT rCollar
			{
				OFFSET -3.470700 6.669187 -0.816635 
				CHANNELS 3 Yrotation Zrotation Xrotation
				JOINT rShldr
				{
					OFFSET -3.198488 0.000000 0.000000 
					CHANNELS 3 Zrotation Yrotation Xrotation
					JOINT rForeArm
					{
						OFFSET -10.139888 0.000000 0.000000 
						CHANNELS 3 Yrotation Zrotation Xrotation
						JOINT rHand
						{
							OFFSET -8.370511 0.000000 0.000000 
							CHANNELS 3 Zrotation Yrotation Xrotation
							End Site
							{
								OFFSET -4.083176 0.000000 0.000000 
							}
						}
					}
				}
			}
		}
	}
	JOINT lThigh
	{
		OFFSET 5.308129 -1.633274 1.361059 
		CHANNELS 3 Xrotation Zrotation Yrotation
		JOINT lShin
		{
			OFFSET -2.041588 -20.007561 0.000000 
			CHANNELS 3 Xrotation Zrotation Yrotation
			JOINT lFoot
			{
				OFFSET 0.000000 -19.190928 -1.224953 
				CHANNELS 3 Xrotation Yrotation Zrotation
				End Site
				{
					OFFSET 0.000000 -2.449906 4.627600 
				}
			}
		}
	}
	JOINT rThigh
	{
		OFFSET -5.308129 -1.633274 1.361059 
		CHANNELS 3 Xrotation Zrotation Yrotation
		JOINT rShin
		{
			OFFSET 2.041588 -20.007561 0.000000 
			CHANNELS 3 Xrotation Zrotation Yrotation
			JOINT rFoot
			{
				OFFSET 0.000000 -19.190928 -1.224953 
				CHANNELS 3 Xrotation Yrotation Zrotation
				End Site
				{
					OFFSET 0.000000 -2.449906 4.627600 
				}
			}
		}
	}
}
MOTION
Frames: 19
Frame Time: 0.011111
2.274719 43.196850 -20.293236 -20.167709 2.271024 4.586830 59.814590 -2.554633 -5.824946 -17.227543 -0.629792 -0.911671 -9.347104 -15.695631 -8.727951 -5.716891 24.725225 -22.854189 2.424333 -4.683778 1.783845 -35.749058 -34.392612 77.525772 -84.993660 2.916210 26.516594 8.524705 12.647240 -39.222061 -2.738486 -1.140572 2.095526 52.608986 30.232595 69.476830 86.480949 -1.707632 31.230589 -8.534408 -12.637552 32.415874 -27.030411 21.493277 9.245218 64.985420 -2.163166 -8.539296 -13.159205 -7.851058 -5.090651 -67.397278 -43.732800 -20.190893 143.696991 -8.250939 7.114038 -17.348646 -5.551441 1.244145 
2.275020 43.195648 -20.295641 -20.178291 2.174896 4.549230 59.821297 -2.510151 -5.746082 -17.286104 -0.640828 -0.901611 -9.419646 -15.755281 -8.709342 -5.600659 24.799173 -22.817787 2.424333 -4.683778 1.783845 -35.729198 -34.363262 77.593582 -84.995125 2.917482 26.526247 8.524705 12.647240 -39.143932 -2.738486 -1.140572 2.095526 52.588707 30.203434 69.612801 86.480949 -1.707632 31.230589 -8.534408 -12.637552 32.523296 -27.060312 21.630632 9.256095 65.014519 -2.153341 -8.545184 -13.150569 -7.883457 -5.095622 -67.283447 -43.552143 -20.299019 143.687363 -8.251052 7.107861 -17.354548 -5.653359 1.219096 
2.275320 43.193542 -20.300451 -20.169008 2.093119 4.527335 59.778671 -2.461099 -5.699343 -17.295870 -0.640982 -0.901502 -9.423046 -15.827744 -8.668115 -5.608539 24.979044 -22.772430 2.424333 -4.683778 1.783845 -35.719212 -34.363232 77.612839 -84.995621 2.917692 26.526220 8.524705 12.647240 -39.124401 -2.738486 -1.140572 2.095526 52.608536 30.183767 69.623299 86.480949 -1.707632 31.230589 -8.534408 -12.637552 32.445168 -27.136211 21.745438 9.244014 65.044205 -2.172945 -8.540141 -13.101140 -7.927213 -5.092072 -67.264587 -43.377388 -20.383524 143.669235 -8.266566 7.098291 -17.323435 -5.780778 1.193744 
2.275621 43.191742 -20.305866 -20.140337 2.062382 4.507630 59.740231 -2.470094 -5.679291 -17.315418 -0.631869 -0.891184 -9.382440 -15.812458 -8.681477 -5.636056 24.930719 -22.799261 2.424333 -4.683778 1.783845 -35.729351 -34.324200 77.593590 -84.995613 2.917050 26.516479 8.524705 12.647240 -39.261120 -2.738486 -1.140572 2.095526 52.618084 30.134871 69.613899 86.481400 -1.707552 31.230589 -8.534408 -12.637552 32.376812 -27.201937 21.801186 9.282590 65.072769 -2.154330 -8.559878 -13.070820 -7.948905 -5.111598 -67.359550 -43.246483 -20.344627 143.648071 -8.250936 7.103272 -17.320576 -5.870381 1.165240 
2.277125 43.192642 -20.307369 -20.130554 2.105013 4.512879 59.733849 -2.514337 -5.677545 -17.344728 -0.622899 -0.880766 -9.329789 -15.752128 -8.734329 -5.669109 24.808731 -22.860975 2.424333 -4.683778 1.783845 -35.739376 -34.314457 77.623161 -84.995621 2.917692 26.526220 8.524705 12.647240 -39.290417 -2.738486 -1.140572 2.095526 52.637451 30.066376 69.595108 86.482162 -1.708071 31.240326 -8.534408 -12.637552 32.376812 -27.176968 21.747234 9.317055 65.053909 -2.154238 -8.539122 -13.072315 -7.926698 -5.110921 -67.421394 -43.368443 -20.327917 143.668930 -8.266502 7.107285 -17.369434 -5.760828 1.202531 
2.279531 43.191742 -20.307070 -20.140112 2.183409 4.525663 59.737846 -2.572891 -5.759449 -17.344797 -0.593285 -0.889523 -9.299243 -15.738214 -8.744684 -5.709753 24.796894 -22.873434 2.424333 -4.683778 1.783845 -35.729271 -34.343731 77.632652 -84.994141 2.916420 26.516565 8.524705 12.647240 -39.231823 -2.738486 -1.140572 2.095526 52.637451 30.066376 69.634171 86.482628 -1.707991 31.240322 -8.534408 -12.637552 32.484234 -27.136816 21.648407 9.349343 65.034042 -2.154436 -8.547354 -13.079567 -7.900352 -5.098294 -67.458878 -43.561394 -20.249247 143.687378 -8.251056 7.107843 -17.422235 -5.620649 1.212101 
2.284643 43.187229 -20.304663 -20.130621 2.309472 4.531569 59.723816 -2.651176 -5.901148 -17.325388 -0.543507 -0.907554 -9.221333 -15.778615 -8.720599 -5.859361 24.865582 -22.849516 2.424333 -4.683778 1.783845 -35.739338 -34.324223 77.623161 -84.994637 2.916630 26.516533 8.524705 12.647240 -39.231823 -2.738486 -1.140572 2.095526 52.577354 30.057030 69.675880 86.486443 -1.717866 31.249704 -8.534408 -12.637552 32.581890 -27.066662 21.490259 9.385958 65.034576 -2.164078 -8.533999 -13.107582 -7.877800 -5.089318 -67.633766 -43.823746 -20.072762 143.737366 -8.261107 7.109278 -17.406967 -5.515036 1.239758 
2.288552 43.186028 -20.304663 -20.140949 2.412015 4.525079 59.728645 -2.716835 -6.002665 -17.335241 -0.504286 -0.915876 -9.233800 -15.833355 -8.679660 -5.841063 24.922148 -22.792059 2.424333 -4.683778 1.783845 -35.749435 -34.294956 77.633209 -84.995125 2.917482 26.526247 8.524705 12.647240 -39.222061 -2.738486 -1.140572 2.095526 52.506905 30.008682 69.692818 86.490761 -1.727651 31.258795 -8.534408 -12.637552 32.611187 -26.996176 21.380602 9.423384 65.024490 -2.163233 -8.542349 -13.158655 -7.811083 -5.091766 -67.743240 -44.012306 -19.950008 143.757568 -8.261227 7.093888 -17.384476 -5.442218 1.270659 
2.290056 43.182716 -20.312183 -20.141314 2.352723 4.505215 59.753330 -2.660636 -5.979268 -17.374348 -0.485061 -0.924633 -9.354730 -15.859924 -8.642607 -5.695762 24.865765 -22.717398 2.424333 -4.683778 1.783845 -35.789524 -34.255993 77.614777 -84.988785 2.924729 26.515566 8.524705 12.647240 -39.309952 -2.738486 -1.140572 2.095526 52.447342 30.057915 69.729660 86.490349 -1.728373 31.268545 -8.534408 -12.637552 32.650246 -27.031170 21.464773 9.425972 65.034576 -2.164077 -8.533999 -13.150617 -7.830155 -5.078886 -67.760315 -43.862347 -19.970043 143.747009 -8.260993 7.115453 -17.318707 -5.549977 1.246456 
2.293063 43.175201 -20.319700 -20.152094 2.296634 4.463270 59.791679 -2.646356 -5.949669 -17.423166 -0.486170 -0.914459 -9.352328 -15.808691 -8.630943 -5.754591 24.778708 -22.684368 2.424333 -4.683778 1.783845 -35.809643 -34.216991 77.586037 -84.982918 2.932180 26.505350 8.524705 12.647240 -39.407608 -2.738486 -1.140572 2.095526 52.427525 30.077585 69.748451 86.491051 -1.728249 31.268541 -8.534408 -12.637552 32.650246 -27.039169 21.531252 9.451250 65.034248 -2.163253 -8.543114 -13.125690 -7.807953 -5.087671 -67.821495 -43.729370 -19.976007 143.759109 -8.276870 7.086151 -17.284401 -5.609693 1.236987 
2.297574 43.177006 -20.317896 -20.182611 2.424810 4.436672 59.829704 -2.757827 -6.045922 -17.413445 -0.466494 -0.913896 -9.328524 -15.725745 -8.629745 -5.793811 24.708094 -22.655018 2.424333 -4.683778 1.783845 -35.809757 -34.187691 77.586044 -84.982918 2.932180 26.505350 8.524705 12.647240 -39.417370 -2.738486 -1.140572 2.095526 52.437260 30.048222 69.729294 86.492287 -1.728680 31.278278 -8.534408 -12.637552 32.611187 -26.908848 21.381151 9.512774 65.004944 -2.164052 -8.541327 -13.163965 -7.766623 -5.079376 -67.865730 -43.927811 -19.828520 143.766968 -8.261199 7.108307 -17.323145 -5.445355 1.272420 
2.300582 43.182419 -20.314886 -20.201773 2.485633 4.455651 59.812561 -2.789236 -6.108345 -17.403687 -0.466013 -0.923735 -9.295240 -15.652545 -8.642190 -5.824385 24.619112 -22.650116 2.424333 -4.683778 1.783845 -35.799923 -34.148602 77.605309 -84.982918 2.932180 26.505350 8.524705 12.647240 -39.427132 -2.738486 -1.140572 2.095526 52.477085 30.028418 69.721001 86.491577 -1.728805 31.278278 -8.534408 -12.637552 32.562355 -26.844694 21.297779 9.537605 64.985428 -2.163164 -8.539298 -13.185332 -7.769516 -5.083863 -67.840118 -44.128368 -19.781427 143.776901 -8.261151 7.105488 -17.397999 -5.294976 1.309392 
2.301484 43.179108 -20.316391 -20.210915 2.428032 4.466285 59.808205 -2.737470 -6.092028 -17.423178 -0.485528 -0.933979 -9.215199 -15.646396 -8.635168 -5.885714 24.620626 -22.642185 2.424333 -4.683778 1.783845 -35.820114 -34.090061 77.586334 -84.981934 2.931113 26.495663 8.524705 12.647240 -39.388073 -2.738486 -1.140572 2.095526 52.516998 30.018381 69.605293 86.487434 -1.718343 31.259447 -8.534408 -12.637552 32.327984 -26.883280 21.365612 9.510746 64.995186 -2.163179 -8.540059 -13.168885 -7.780117 -5.076560 -67.738937 -44.094051 -19.892500 143.768356 -8.271306 7.089997 -17.446348 -5.306153 1.311940 
2.303288 43.175800 -20.319098 -20.240391 2.405232 4.453475 59.825417 -2.710085 -6.081245 -17.452492 -0.476245 -0.933415 -9.187056 -15.685878 -8.607503 -5.877684 24.674545 -22.583469 2.424333 -4.683778 1.783845 -35.860233 -34.041344 77.563606 -84.980957 2.931331 26.505465 8.524705 12.647240 -39.349010 -2.738486 -1.140572 2.095526 52.526997 30.018309 69.420120 86.481636 -1.707512 31.230585 -8.534408 -12.637552 31.966654 -26.871521 21.412289 9.512885 65.014175 -2.154423 -8.555445 -13.214808 -7.748144 -5.064471 -67.650955 -44.093876 -19.961637 143.759125 -8.276870 7.086143 -17.412661 -5.364080 1.291304 
2.306596 43.176704 -20.323608 -20.260628 2.353195 4.420375 59.843372 -2.686447 -6.034140 -17.462231 -0.486479 -0.923888 -9.177573 -15.697767 -8.568843 -5.823468 24.702518 -22.500227 2.424333 -4.683778 1.783845 -35.900272 -34.012150 77.564713 -84.980949 2.930689 26.495722 8.524705 12.647240 -39.319714 -2.738486 -1.140572 2.095526 52.516998 30.018381 69.429512 86.481178 -1.707592 31.230593 -8.534408 -12.637552 32.005718 -26.849812 21.468523 9.534045 65.034042 -2.154433 -8.547354 -13.262121 -7.726686 -5.068667 -67.593956 -44.008266 -19.989918 143.737366 -8.261109 7.109262 -17.396685 -5.387610 1.279092 
2.310806 43.179710 -20.326918 -20.261028 2.358975 4.407839 59.833351 -2.681865 -6.035747 -17.462191 -0.506000 -0.924517 -9.186487 -15.675384 -8.539954 -5.776989 24.706615 -22.425995 2.424333 -4.683778 1.783845 -35.890289 -34.012123 77.613274 -84.981934 2.931113 26.495663 8.524705 12.647240 -39.241589 -2.738486 -1.140572 2.095526 52.536907 30.008476 69.606041 86.485970 -1.717948 31.249710 -8.534408 -12.637552 32.367046 -26.852970 21.452412 9.508638 65.044205 -2.172941 -8.540140 -13.251803 -7.741458 -5.074172 -67.631294 -44.025314 -19.949423 143.726898 -8.251096 7.104128 -17.407578 -5.384368 1.280554 
2.314415 43.180916 -20.328121 -20.260426 2.421690 4.436741 59.843071 -2.687921 -6.101261 -17.471964 -0.505532 -0.943952 -9.234662 -15.639254 -8.502372 -5.727928 24.702332 -22.350718 2.424333 -4.683778 1.783845 -35.870289 -34.021835 77.632248 -84.982918 2.932180 26.505350 8.524705 12.647240 -39.143932 -2.738486 -1.140572 2.095526 52.566723 29.988737 69.675514 86.491051 -1.728249 31.268541 -8.534408 -12.637552 32.484234 -26.839724 21.370544 9.523223 65.043808 -2.154250 -8.547977 -13.246733 -7.728133 -5.078383 -67.702652 -44.195683 -19.885422 143.739212 -8.276813 7.092568 -17.365990 -5.395735 1.297957 
2.315317 43.177608 -20.332630 -20.260214 2.325711 4.430509 59.858021 -2.626825 -6.037332 -17.462158 -0.524892 -0.944668 -9.284754 -15.644652 -8.478085 -5.729967 24.751974 -22.315151 2.424333 -4.683778 1.783845 -35.860119 -34.070633 77.583145 -84.982430 2.931967 26.505377 8.524705 12.647240 -39.095104 -2.738486 -1.140572 2.095526 52.616638 29.978626 69.491806 86.491051 -1.728249 31.268541 -8.534408 -12.637552 32.240089 -26.899267 21.478977 9.477343 65.063339 -2.154283 -8.549500 -13.247725 -7.730600 -5.068712 -67.645546 -44.041534 -19.976471 143.726883 -8.251093 7.104135 -17.364059 -5.527879 1.245317 
2.315619 43.173695 -20.337442 -20.260574 2.222969 4.405962 59.855618 -2.588364 -5.924059 -17.471891 -0.535439 -0.925370 -9.206418 -15.677287 -8.465040 -5.781630 24.848606 -22.302240 2.424333 -4.683778 1.783845 -35.880051 -34.080456 77.573929 -84.987305 2.923454 26.505907 8.524705 12.647240 -39.114635 -2.738486 -1.140572 2.095526 52.656456 29.958822 69.214966 86.485687 -1.717350 31.239971 -8.534408 -12.637552 31.908062 -26.937437 21.595201 9.451348 65.063545 -2.163105 -8.545265 -13.232531 -7.735638 -5.070698 -67.556564 -43.834877 -20.112185 143.707764 -8.261018 7.110214 -17.427309 -5.556544 1.226414 
